<?xml version="1.0" standalone="no"?>
<!DOCTYPE svg PUBLIC "-//W3C//DTD SVG 20010904//EN"
 "http://www.w3.org/TR/2001/REC-SVG-20010904/DTD/svg10.dtd">
<svg version="1.0" xmlns="http://www.w3.org/2000/svg"
 width="594.000000pt" height="420.000000pt" viewBox="0 0 594.000000 420.000000"
 preserveAspectRatio="xMidYMid meet">

<g transform="translate(0.000000,420.000000) scale(0.100000,-0.100000)"
fill="#000000" stroke="none">
<path d="M3700 3493 c-25 -10 -60 -40 -53 -47 3 -3 1 -6 -5 -6 -7 0 -11 -3
-10 -7 0 -5 -2 -16 -7 -26 -7 -18 0 -78 15 -117 1 -3 2 -9 1 -14 -1 -5 4 -4
11 2 9 7 19 8 28 2 19 -12 83 -13 76 -1 -3 5 1 12 10 15 8 3 12 2 9 -4 -9 -14
14 -12 29 3 20 20 37 57 31 66 -3 5 -1 11 5 13 6 2 6 16 -1 40 -16 59 -87 100
-139 81z m-6 -21 c3 -5 -1 -9 -9 -9 -8 0 -12 4 -9 9 3 4 7 8 9 8 2 0 6 -4 9
-8z m80 -21 c-2 -2 3 -13 13 -23 25 -28 25 -65 0 -90 -12 -11 -15 -17 -7 -13
8 5 12 5 8 1 -3 -4 -8 -8 -10 -7 -1 0 -20 -4 -40 -8 -22 -5 -36 -5 -32 0 3 5
-4 9 -15 9 -12 0 -20 3 -19 8 1 4 -2 19 -6 34 -4 14 -3 35 3 46 7 13 7 22 -2
31 -9 10 -9 11 4 6 8 -3 26 -2 40 3 23 9 71 11 63 3z"/>
<path d="M2264 3287 c-12 -7 -19 -18 -17 -25 3 -7 0 -11 -5 -10 -6 2 -10 -1
-11 -5 0 -4 -7 -14 -15 -23 -22 -22 -2 -114 25 -114 6 0 8 -4 4 -10 -7 -12 71
-33 100 -26 34 9 77 47 71 63 -3 8 -1 11 4 8 6 -3 10 1 10 10 0 15 17 16 183
11 139 -5 522 -12 814 -16 7 0 11 -12 10 -29 -2 -24 -5 -27 -16 -18 -8 7 -12
8 -9 2 3 -5 0 -16 -8 -23 -8 -7 -14 -10 -14 -6 0 4 -13 -5 -30 -21 -16 -15
-27 -32 -24 -37 3 -5 2 -7 -3 -6 -5 2 -50 -37 -101 -87 -69 -67 -92 -95 -88
-109 10 -39 -38 -95 -87 -101 -37 -5 -44 -1 -75 39 -28 37 -30 105 -4 126 22
18 37 23 77 24 32 1 79 28 68 39 -3 4 1 7 10 7 19 0 31 16 22 30 -5 8 -12 7
-23 -2 -9 -7 -13 -8 -10 -3 4 7 -177 11 -534 12 -397 2 -544 5 -554 14 -8 7
-12 14 -10 16 9 9 -38 53 -51 49 -7 -3 -13 -1 -13 4 0 11 -59 13 -85 4 -13 -5
-14 -8 -3 -15 9 -6 7 -9 -9 -9 -31 0 -57 -52 -50 -97 9 -54 80 -108 122 -93
11 4 24 5 28 3 11 -7 46 26 64 60 l14 28 145 -2 c79 -1 147 -6 150 -10 3 -5 5
-180 4 -389 0 -357 3 -406 26 -368 5 7 3 8 -6 3 -9 -5 -11 -4 -6 4 4 6 11 9
15 6 14 -8 74 52 65 66 -4 8 -3 10 4 5 15 -9 15 -17 12 210 -1 206 -3 230 -16
227 -5 0 -15 5 -22 13 -7 8 -10 14 -7 14 3 0 0 10 -7 23 -22 40 -17 80 17 110
22 21 25 27 10 22 -16 -5 -17 -5 -5 3 8 6 27 8 44 5 20 -4 27 -3 22 5 -3 6 -1
14 5 18 7 4 10 3 7 -2 -6 -8 15 -35 27 -34 20 1 25 -1 23 -7 -1 -5 4 -19 11
-32 15 -28 9 -85 -12 -106 -15 -15 -15 -11 -6 -395 3 -120 2 -125 -16 -122
-11 2 -17 1 -13 -3 4 -4 -11 -21 -32 -36 -37 -27 -45 -39 -41 -62 1 -5 -2 -6
-7 -3 -12 7 -134 -118 -125 -129 4 -4 3 -5 -3 -2 -6 4 -19 -2 -29 -13 -15 -17
-16 -22 -4 -37 13 -16 12 -17 -3 -4 -14 11 -21 11 -33 1 -8 -7 -12 -17 -8 -23
3 -5 1 -7 -4 -4 -11 7 -103 -87 -103 -104 0 -6 -5 -7 -12 -3 -7 4 -8 3 -4 -4
4 -7 -6 -20 -26 -32 -18 -11 -29 -20 -24 -20 5 0 -4 -11 -20 -25 -25 -22 -36
-24 -82 -20 -40 4 -51 2 -46 -8 5 -8 2 -7 -9 2 -12 9 -17 10 -17 2 0 -7 -5 -9
-12 -5 -7 5 -9 2 -5 -9 4 -11 2 -14 -8 -11 -8 4 -20 -6 -29 -25 -19 -35 -20
-45 -5 -35 8 5 8 1 0 -14 -12 -22 -5 -55 10 -46 5 3 6 -1 4 -9 -7 -17 22 -42
57 -51 25 -6 26 -5 15 17 -7 12 -21 33 -33 45 -23 24 -24 43 -4 85 18 37 52
44 88 18 16 -11 33 -17 37 -13 5 4 5 1 1 -5 -4 -7 -3 -20 2 -30 7 -12 5 -24
-6 -42 -25 -39 -35 -47 -59 -45 -25 1 -30 -10 -10 -23 19 -12 49 -14 42 -3 -3
5 0 7 7 5 8 -3 25 6 38 20 19 20 25 39 26 76 1 27 -2 47 -7 43 -11 -7 -6 33 6
43 4 5 4 1 0 -7 -8 -13 -7 -13 8 -1 10 7 16 21 15 30 -2 8 4 16 13 16 21 0
122 102 114 115 -4 6 1 7 11 3 14 -5 16 -3 11 11 -4 10 -3 15 3 11 11 -7 86
73 84 90 -1 7 8 10 22 7 23 -4 24 -8 25 -96 1 -50 0 -95 -1 -101 -1 -5 -3 -20
-4 -31 0 -12 -6 -19 -12 -17 -7 2 -19 -5 -27 -17 -14 -20 -47 -24 -73 -8 -17
11 -99 -17 -102 -36 -2 -9 -7 -16 -12 -16 -13 0 -19 -54 -8 -67 7 -9 7 -13 -1
-13 -19 0 -12 -19 19 -52 24 -25 40 -32 75 -34 46 -3 68 11 44 27 -8 5 -24 9
-35 9 -37 0 -74 37 -70 71 5 53 61 89 102 66 14 -8 16 -7 11 7 -4 11 -3 15 4
11 6 -4 8 -13 5 -21 -3 -7 -1 -16 5 -20 5 -3 9 -25 8 -49 -2 -24 -5 -42 -8
-41 -3 2 -12 -2 -18 -9 -10 -11 -9 -15 7 -20 11 -4 17 -11 14 -17 -5 -7 -2 -8
5 -4 7 5 10 14 7 22 -3 8 0 11 10 7 7 -3 15 0 15 6 2 15 4 23 14 44 4 11 3 23
-3 29 -6 6 -8 17 -5 26 5 11 2 13 -6 7 -18 -10 2 27 23 44 9 8 13 17 10 22 -3
5 -2 9 3 8 20 -3 34 2 28 11 -4 6 1 7 11 3 13 -5 15 -3 9 8 -8 12 -6 12 8 0
10 -8 33 -12 57 -9 22 2 40 1 40 -3 0 -10 64 -7 78 4 9 7 11 5 6 -9 -4 -10
-11 -24 -15 -30 -5 -6 -5 -14 -1 -18 4 -4 0 -6 -8 -4 -9 2 -14 -3 -12 -11 2
-8 -3 -11 -12 -8 -17 7 -60 -45 -48 -58 4 -5 1 -5 -6 -1 -14 9 -44 -23 -35
-37 2 -4 1 -6 -4 -5 -15 4 -53 -23 -53 -38 0 -8 -4 -13 -8 -10 -10 6 -48 -35
-44 -47 1 -5 -2 -6 -7 -3 -18 11 -24 -16 -7 -32 9 -9 16 -11 16 -5 0 6 16 21
35 33 19 12 33 26 29 31 -3 5 1 9 8 9 8 0 19 5 26 12 11 11 153 12 832 3 91
-1 173 2 182 7 10 5 19 4 24 -3 3 -6 15 -8 26 -6 11 3 18 3 15 0 -7 -7 16 -32
24 -27 4 2 6 -4 5 -14 0 -10 6 -16 16 -16 10 1 16 -3 15 -9 -3 -13 57 -30 61
-17 2 5 9 7 17 4 7 -3 16 0 20 5 3 6 12 8 18 5 7 -4 9 -4 6 0 -4 4 4 18 17 31
29 29 32 80 7 124 -17 29 -60 57 -71 46 -3 -2 -11 0 -18 6 -9 7 -19 7 -36 -2
-13 -7 -26 -12 -30 -11 -10 2 -48 -48 -48 -64 0 -8 -6 -14 -12 -15 -10 0 -930
0 -995 1 -24 0 -13 17 46 76 33 32 57 63 54 68 -3 5 -1 6 5 2 6 -3 19 4 29 16
10 13 43 46 73 73 30 28 54 55 52 62 -1 6 3 15 9 19 8 4 9 3 5 -4 -4 -7 -3
-12 2 -12 15 0 20 22 12 45 -16 44 32 95 90 95 112 0 123 -161 11 -175 -38 -4
-74 -32 -67 -51 3 -8 0 -11 -8 -8 -7 3 -20 -3 -28 -13 -16 -17 6 -18 525 -18
350 0 545 4 549 10 5 6 8 5 8 -2 0 -14 26 -18 33 -5 2 4 2 1 1 -5 -2 -7 1 -13
7 -13 6 0 8 -4 5 -9 -8 -12 47 -58 63 -53 8 3 11 0 7 -7 -5 -7 4 -11 28 -11
42 0 68 9 60 21 -3 5 1 6 8 4 8 -3 21 8 31 25 10 16 15 30 11 30 -3 0 -2 6 4
13 12 14 4 67 -9 67 -5 0 -8 5 -7 11 5 18 -46 50 -87 54 -28 2 -35 1 -24 -7
11 -7 9 -9 -9 -5 -29 7 -91 -51 -70 -64 16 -11 10 -11 -156 -11 -71 1 -131 3
-133 6 -3 2 -5 179 -4 393 l0 388 -69 -75 -70 -75 1 -193 c1 -176 2 -197 21
-228 22 -37 19 -99 -5 -107 -9 -3 -8 -9 3 -23 8 -11 8 -14 1 -8 -13 12 -54 7
-46 -5 2 -4 -11 -5 -30 -2 -45 8 -95 54 -95 89 0 26 38 92 53 92 5 0 5 5 2 10
-3 6 0 10 7 10 9 0 9 3 -2 10 -10 7 -11 10 -2 10 10 0 13 42 13 188 0 216 0
223 10 217 11 -8 70 65 63 77 -4 6 -3 8 4 4 6 -3 39 24 74 60 35 36 82 85 105
109 23 23 39 46 35 50 -4 5 -2 5 4 2 11 -6 94 75 94 93 0 5 3 9 8 8 4 -2 32
23 63 55 30 31 53 57 50 57 -3 0 5 7 17 16 18 13 29 13 56 4 38 -12 90 -4 79
13 -3 6 -1 7 6 3 15 -9 65 39 56 53 -3 6 -1 19 4 29 7 14 6 25 -6 42 -12 18
-13 21 -2 15 8 -5 1 5 -16 23 -32 34 -41 40 -29 20 4 -7 -2 -5 -14 6 -16 14
-30 17 -59 13 -35 -6 -88 -48 -76 -61 4 -3 1 -6 -5 -6 -7 0 -12 -6 -12 -14 0
-10 8 -13 22 -11 23 5 40 24 32 36 -2 4 1 11 7 15 8 4 7 9 -2 16 -11 8 -11 9
1 5 8 -2 14 -10 12 -17 -2 -8 6 -10 25 -6 40 9 78 -20 81 -61 5 -52 -4 -68
-40 -72 -71 -6 -83 -6 -83 6 0 6 -3 15 -7 19 -5 4 -8 17 -8 30 0 15 -5 21 -17
20 -14 -2 -18 -13 -18 -49 0 -25 -4 -49 -9 -54 -6 -5 -6 -2 -1 7 5 8 -14 -9
-41 -39 -27 -30 -48 -62 -47 -70 2 -10 0 -11 -3 -3 -9 19 -18 14 -33 -19 -7
-16 -16 -28 -19 -25 -2 3 -1 11 4 19 5 7 -1 2 -13 -12 -12 -14 -19 -29 -16
-34 3 -6 1 -7 -4 -4 -6 4 -17 -1 -24 -10 -12 -14 -12 -16 0 -8 10 5 12 4 7 -4
-4 -6 -11 -9 -15 -7 -9 6 -74 -58 -67 -65 3 -3 -4 -5 -14 -5 -11 0 -22 6 -24
13 -3 7 0 12 7 10 16 -3 21 231 5 250 -13 16 -32 17 -22 1 5 -7 3 -8 -6 -3
-10 6 -75 11 -198 14 -19 1 -21 4 -13 19 6 11 6 24 -1 36 -8 15 -8 17 2 11 9
-6 11 -4 5 4 -6 10 -3 11 16 1 20 -11 25 -10 45 16 13 15 20 32 18 36 -3 5 -1
7 4 6 14 -4 92 61 89 74 -1 7 3 12 8 13 14 0 59 45 68 67 3 10 2 20 -4 24 -13
7 -51 -25 -43 -38 3 -4 1 -7 -3 -6 -5 2 -24 -12 -42 -29 -25 -26 -38 -32 -57
-27 -14 4 -24 2 -24 -5 0 -7 -8 -8 -22 -3 -13 5 -158 10 -323 11 -165 2 -345
4 -400 6 -55 2 -145 4 -199 4 -55 1 -96 4 -93 8 4 3 -1 12 -11 20 -11 10 -12
12 -2 8 8 -4 0 7 -18 24 -28 27 -36 30 -54 20 -14 -8 -18 -8 -14 0 10 15 -33
14 -60 -2z m113 -63 c18 -25 16 -55 -7 -82 -26 -31 -57 -35 -91 -11 -34 24
-39 67 -12 103 15 19 23 22 57 15 22 -4 46 -15 53 -25z m-423 -185 c-4 -8 26
-23 39 -20 5 1 6 -3 2 -9 -4 -6 -1 -17 5 -25 10 -11 10 -15 1 -15 -7 0 -10 -4
-7 -9 10 -15 -27 -51 -61 -60 -27 -8 -35 -6 -54 15 -24 25 -35 105 -15 101 6
-1 10 3 9 10 -2 8 4 10 14 6 9 -4 14 -2 10 4 -3 5 8 9 28 9 18 -1 31 -4 29 -7z
m720 -594 l1 -50 51 -3 51 -3 -2 35 c-1 56 11 78 42 74 l27 -3 0 -135 c0 -133
-1 -135 -23 -138 -31 -5 -44 10 -43 47 0 17 -4 34 -10 37 -6 4 -5 10 3 15 9 6
-6 8 -38 7 -29 -1 -54 -7 -57 -13 -2 -6 -3 -36 -2 -66 2 -30 1 -48 -1 -41 -3
6 -15 12 -28 12 -13 0 -27 5 -31 11 -6 11 -6 208 1 244 2 11 4 23 4 27 1 3 13
3 28 -1 24 -6 26 -12 27 -56z m368 44 c12 -7 25 -11 27 -10 3 1 6 -4 7 -11 4
-27 9 -43 15 -48 3 -3 -3 -13 -13 -22 -10 -10 -18 -13 -18 -7 0 5 -4 8 -9 4
-5 -3 -19 8 -31 25 -25 35 -40 37 -65 10 -17 -19 -17 -20 10 -30 16 -6 34 -9
42 -6 7 3 13 1 13 -4 0 -6 6 -10 14 -10 7 0 19 -7 26 -15 7 -8 17 -12 23 -8 6
3 7 1 3 -5 -4 -7 -4 -18 1 -24 11 -18 10 -40 -1 -63 -6 -11 -9 -24 -7 -30 1
-5 0 -7 -4 -3 -4 4 -19 2 -33 -3 -14 -5 -45 -10 -70 -11 -50 -1 -88 28 -94 72
-4 36 36 40 63 6 14 -17 28 -24 47 -22 15 1 26 8 25 14 -2 7 2 12 8 12 22 0
-9 25 -34 28 -23 1 -100 31 -84 32 5 0 1 7 -7 16 -24 23 -20 67 9 94 13 12 22
26 20 30 -7 12 92 2 117 -11z m138 11 c3 -1 9 -2 13 -1 5 1 6 -2 3 -7 -3 -5
17 -41 44 -82 l50 -73 1 54 c2 52 4 79 7 106 2 13 28 13 48 1 7 -5 10 -52 9
-137 -1 -105 -5 -132 -18 -146 -10 -10 -17 -12 -17 -5 0 7 -7 9 -17 6 -10 -4
-14 -4 -10 0 10 10 -53 85 -65 78 -7 -4 -8 -2 -4 4 7 12 -17 66 -35 77 -7 5
-10 -16 -8 -66 2 -99 2 -99 -23 -96 -28 3 -38 15 -38 45 0 14 -4 21 -11 16 -8
-5 -8 -1 0 14 15 28 15 85 -1 76 -7 -4 -8 -3 -4 4 7 11 13 51 18 108 2 25 6
29 27 28 15 -2 28 -3 31 -4z m800 -723 c0 5 15 8 33 6 17 -2 40 -4 49 -5 9 -1
15 -5 12 -9 -2 -4 2 -13 9 -21 18 -18 12 -67 -10 -84 -25 -20 -60 -27 -80 -18
-10 4 -21 6 -25 6 -5 -1 -7 1 -7 6 4 22 -3 34 -16 29 -12 -5 -12 -2 -3 21 7
15 16 33 21 40 6 8 5 18 -4 30 -13 15 -12 16 4 3 9 -7 17 -9 17 -4z m-1430
-71 c-7 -7 -13 -7 -20 0 -6 6 -3 10 10 10 13 0 16 -4 10 -10z m-45 -135 c3 -5
2 -12 -3 -15 -5 -3 -9 1 -9 9 0 17 3 19 12 6z m1165 -28 c24 -31 25 -51 4 -81
-8 -12 -13 -26 -10 -30 3 -5 -12 -7 -32 -4 -20 2 -43 4 -51 4 -8 1 -16 10 -19
20 -2 11 -10 17 -18 14 -7 -3 -16 -1 -19 5 -4 5 -1 8 7 7 7 -2 13 6 14 17 1
11 2 25 4 30 1 6 2 13 1 17 0 4 8 10 19 13 11 4 18 10 16 14 -3 4 11 5 30 3
21 -3 42 -14 54 -29z m-1160 -37 c0 -2 -7 -7 -16 -10 -8 -3 -12 -2 -9 4 6 10
25 14 25 6z"/>
<path d="M3705 3211 c-18 -4 -38 -19 -53 -41 -23 -34 -24 -45 -8 -110 4 -18 0
-29 -16 -42 -19 -14 -20 -18 -9 -32 18 -21 28 -20 42 6 10 18 9 20 -6 14 -15
-5 -16 -4 -5 9 10 12 15 13 21 4 4 -7 14 -9 24 -6 11 5 14 3 9 -5 -5 -7 -2 -9
8 -6 8 4 21 3 28 -2 18 -11 63 7 91 36 33 35 32 111 -1 146 -27 28 -75 39
-125 29z m84 -41 c10 0 31 -46 31 -66 0 -8 -13 -28 -29 -45 -23 -23 -34 -29
-54 -24 -86 22 -76 141 12 148 12 1 22 6 22 12 1 5 3 2 6 -7 2 -10 8 -18 12
-18z m6 -139 c3 -5 2 -12 -3 -15 -5 -3 -9 1 -9 9 0 17 3 19 12 6z"/>
<path d="M3390 3040 c0 -5 5 -10 10 -10 6 0 10 5 10 10 0 6 -4 10 -10 10 -5 0
-10 -4 -10 -10z"/>
<path d="M3871 1874 c0 -11 3 -14 6 -6 3 7 2 16 -1 19 -3 4 -6 -2 -5 -13z"/>
<path d="M2205 1412 c-37 -8 -77 -43 -72 -63 3 -11 0 -22 -5 -26 -7 -4 -8 -1
-3 7 5 8 4 11 -1 7 -5 -3 -11 -20 -12 -38 -2 -24 4 -38 21 -53 12 -12 16 -17
7 -12 -8 5 -2 -3 13 -18 15 -14 38 -27 50 -27 37 -2 62 3 68 13 3 5 9 8 12 6
3 -1 17 12 31 31 26 34 28 69 7 124 -11 29 -18 34 -54 41 -15 2 -30 6 -34 9
-5 2 -17 1 -28 -1z m61 -52 c3 0 2 5 -2 12 -4 7 -3 8 4 4 6 -4 8 -14 5 -23 -4
-10 -2 -14 4 -10 6 4 10 -10 11 -34 1 -28 -4 -44 -18 -56 -10 -9 -17 -20 -15
-24 11 -17 -72 12 -87 32 -20 23 -24 64 -8 74 6 4 7 12 4 18 -4 7 -4 9 1 5 4
-4 17 -1 28 7 14 10 26 11 44 4 13 -5 27 -9 29 -9z"/>
<path d="M1773 933 c0 -16 2 -22 4 -15 3 6 9 9 15 6 6 -4 5 2 -1 15 -15 28
-19 27 -18 -6z"/>
<path d="M2011 947 c-8 -10 -7 -14 4 -14 8 0 15 6 15 14 0 7 -2 13 -4 13 -2 0
-9 -6 -15 -13z"/>
<path d="M2124 935 c-2 -19 1 -23 10 -15 7 5 16 6 21 2 4 -4 2 3 -4 16 -15 29
-26 28 -27 -3z"/>
<path d="M2235 940 c-16 -17 -16 -20 -3 -15 13 5 18 -1 21 -27 3 -26 4 -23 5
15 1 26 0 47 -1 47 -2 0 -12 -9 -22 -20z"/>
<path d="M2356 944 c-5 -14 -4 -15 9 -4 17 14 19 20 6 20 -5 0 -12 -7 -15 -16z"/>
<path d="M2669 943 c-13 -17 -13 -17 6 -3 11 8 22 16 24 17 2 2 0 3 -6 3 -6 0
-17 -8 -24 -17z"/>
<path d="M2868 953 c6 -2 18 -2 25 0 6 3 1 5 -13 5 -14 0 -19 -2 -12 -5z"/>
<path d="M3000 950 c0 -5 5 -10 10 -10 6 0 10 5 10 10 0 6 -4 10 -10 10 -5 0
-10 -4 -10 -10z"/>
<path d="M3155 949 c-11 -16 -2 -17 25 -2 24 12 24 13 3 13 -12 0 -25 -5 -28
-11z"/>
<path d="M3967 947 c-3 -8 1 -14 9 -14 8 0 14 6 14 14 0 7 -4 13 -9 13 -5 0
-11 -6 -14 -13z"/>
<path d="M4275 949 c16 -5 33 -5 38 0 4 4 -9 8 -30 8 -38 1 -38 1 -8 -8z"/>
<path d="M4410 956 c0 -2 7 -9 15 -16 13 -11 14 -10 9 4 -5 14 -24 23 -24 12z"/>
<path d="M1890 940 c0 -5 5 -10 10 -10 6 0 10 5 10 10 0 6 -4 10 -10 10 -5 0
-10 -4 -10 -10z"/>
<path d="M3313 885 c0 -38 2 -53 4 -32 2 20 2 52 0 70 -2 17 -4 1 -4 -38z"/>
<path d="M4093 928 c0 -13 1 -17 4 -10 3 6 9 9 15 6 6 -4 9 -1 6 6 -7 23 -24
21 -25 -2z"/>
<path d="M3445 930 c4 -6 11 -8 16 -5 14 9 11 15 -7 15 -8 0 -12 -5 -9 -10z"/>
<path d="M4530 907 c0 -20 4 -37 10 -37 5 0 7 14 3 33 -8 45 -13 47 -13 4z"/>
<path d="M3612 910 c0 -14 2 -19 5 -12 2 6 2 18 0 25 -3 6 -5 1 -5 -13z"/>
<path d="M4197 913 c-4 -3 -7 -11 -7 -17 0 -6 5 -5 12 2 6 6 9 14 7 17 -3 3
-9 2 -12 -2z"/>
<path d="M3076 895 c-11 -8 -15 -15 -9 -15 6 0 16 7 23 15 16 19 11 19 -14 0z"/>
<path d="M3945 899 c-4 -6 -5 -12 -2 -15 2 -3 7 2 10 11 7 17 1 20 -8 4z"/>
<path d="M4386 893 c-6 -14 -5 -15 5 -6 7 7 10 15 7 18 -3 3 -9 -2 -12 -12z"/>
<path d="M1531 873 c1 -17 3 -21 6 -10 2 9 14 17 26 18 21 0 21 1 2 9 -32 14
-35 12 -34 -17z"/>
<path d="M1773 860 c0 -25 2 -35 4 -22 2 12 2 32 0 45 -2 12 -4 2 -4 -23z"/>
<path d="M3156 887 c3 -10 9 -15 12 -12 3 3 0 11 -7 18 -10 9 -11 8 -5 -6z"/>
<path d="M3721 884 c0 -11 3 -14 6 -6 3 7 2 16 -1 19 -3 4 -6 -2 -5 -13z"/>
<path d="M3810 890 c8 -5 24 -10 34 -10 26 0 18 6 -19 14 -22 5 -26 4 -15 -4z"/>
<path d="M4092 875 c0 -16 2 -22 5 -12 2 9 2 23 0 30 -3 6 -5 -1 -5 -18z"/>
<path d="M4293 850 c0 -25 2 -35 4 -22 2 12 2 32 0 45 -2 12 -4 2 -4 -23z"/>
<path d="M1342 860 c0 -14 2 -19 5 -12 2 6 2 18 0 25 -3 6 -5 1 -5 -13z"/>
<path d="M2051 864 c0 -11 3 -14 6 -6 3 7 2 16 -1 19 -3 4 -6 -2 -5 -13z"/>
<path d="M3545 861 c-4 -14 -12 -18 -23 -14 -15 6 -14 3 2 -15 26 -30 31 -28
32 13 1 40 -2 43 -11 16z"/>
<path d="M4193 864 c-3 -8 -12 -13 -20 -10 -11 4 -11 1 -3 -15 15 -27 34 -19
37 14 2 30 -4 35 -14 11z"/>
<path d="M4767 860 c-3 -12 0 -20 8 -20 8 0 11 8 8 20 -3 11 -7 20 -8 20 -1 0
-5 -9 -8 -20z"/>
<path d="M2322 863 c1 -5 -3 -19 -10 -33 -13 -24 -12 -24 3 -5 9 11 21 19 27
17 7 -2 6 3 -2 12 -13 17 -21 21 -18 9z"/>
<path d="M3002 845 c0 -16 2 -22 5 -12 2 9 2 23 0 30 -3 6 -5 -1 -5 -18z"/>
<path d="M3610 858 c0 -9 7 -22 17 -29 15 -13 15 -12 3 11 -17 34 -20 36 -20
18z"/>
<path d="M1966 851 c-3 -5 6 -8 20 -8 19 0 22 2 13 8 -18 11 -26 11 -33 0z"/>
<path d="M3931 850 c-9 -5 -4 -7 13 -7 29 0 32 2 13 10 -8 3 -20 2 -26 -3z"/>
<path d="M3995 850 c-17 -8 -16 -8 8 -7 15 1 27 5 27 9 0 10 -9 9 -35 -2z"/>
<path d="M4373 846 c0 -8 6 -12 14 -9 7 3 10 9 7 14 -8 14 -21 11 -21 -5z"/>
<path d="M4430 850 c-24 -8 -23 -8 8 -9 20 -1 31 3 27 9 -3 6 -7 10 -8 9 -1
-1 -13 -5 -27 -9z"/>
<path d="M4690 850 c-12 -7 -10 -9 7 -7 12 0 19 5 17 9 -6 10 -6 10 -24 -2z"/>
<path d="M2915 830 c-16 -17 -16 -20 -3 -15 9 4 19 13 22 21 7 19 2 18 -19 -6z"/>
<path d="M3704 828 l-19 -23 23 19 c21 18 27 26 19 26 -2 0 -12 -10 -23 -22z"/>
<path d="M3861 827 c-13 -21 -12 -21 5 -5 10 10 16 20 13 22 -3 3 -11 -5 -18
-17z"/>
<path d="M2478 828 c-4 -9 3 -14 21 -15 14 -1 19 1 11 4 -8 3 -18 10 -21 15
-3 5 -9 3 -11 -4z"/>
<path d="M2730 820 c-9 -6 -10 -10 -3 -10 6 0 15 5 18 10 8 12 4 12 -15 0z"/>
</g>
</svg>
